<?xml version="1.0" standalone="no"?>
<!DOCTYPE svg PUBLIC "-//W3C//DTD SVG 20010904//EN"
 "http://www.w3.org/TR/2001/REC-SVG-20010904/DTD/svg10.dtd">
<svg version="1.0" xmlns="http://www.w3.org/2000/svg"
 width="470.000000pt" height="456.000000pt" viewBox="0 0 470.000000 456.000000"
 preserveAspectRatio="xMidYMid meet">

<g transform="translate(0.000000,456.000000) scale(0.100000,-0.100000)"
fill="#000000" stroke="none">
<path d="M2049 4429 c-462 -49 -915 -261 -1253 -589 -197 -190 -324 -364 -441
-605 -133 -272 -190 -485 -216 -800 -22 -275 23 -597 122 -870 46 -126 157
-346 234 -460 190 -283 463 -533 757 -693 696 -378 1549 -345 2208 86 913 597
1237 1783 751 2747 -117 232 -218 374 -389 549 -357 364 -805 580 -1314 635
-110 12 -346 12 -459 0z m496 -30 c751 -86 1420 -598 1708 -1304 247 -606 197
-1314 -133 -1869 -310 -521 -806 -880 -1392 -1005 -214 -45 -496 -58 -698 -32
-920 119 -1651 795 -1829 1691 -206 1044 385 2072 1392 2419 305 105 620 138
952 100z"/>
<path d="M2150 4208 c-79 -40 -111 -118 -89 -218 26 -124 168 -177 289 -109
54 31 80 82 80 160 0 118 -70 189 -185 189 -33 0 -67 -8 -95 -22z m164 -71
c50 -50 41 -173 -14 -202 -34 -17 -68 -19 -105 -5 -60 23 -74 161 -21 207 38
32 108 32 140 0z"/>
<path d="M2520 4153 c-7 -32 -23 -109 -36 -172 -13 -63 -22 -117 -20 -119 3
-2 20 -7 40 -12 39 -9 40 -8 61 97 6 30 9 32 38 26 18 -3 43 -11 57 -17 23
-11 25 -16 22 -77 l-3 -66 37 -6 c21 -4 39 -5 41 -3 2 2 6 32 10 68 5 59 4 67
-18 86 -17 17 -19 22 -7 22 26 0 66 39 73 71 9 41 -11 86 -46 105 -24 12 -202
54 -229 54 -5 0 -14 -26 -20 -57z m188 -49 c25 -16 28 -42 9 -68 -11 -15 -22
-17 -63 -12 -68 10 -72 13 -61 64 l8 44 42 -7 c23 -4 52 -13 65 -21z"/>
<path d="M1818 4167 c-80 -19 -128 -35 -128 -43 0 -12 50 -229 71 -306 9 -36
9 -36 47 -26 20 6 38 11 40 13 2 1 -5 32 -14 69 -9 37 -15 68 -13 70 2 2 40
12 84 23 79 19 80 20 77 49 -2 16 -4 30 -6 31 -1 1 -35 -7 -76 -17 -94 -24
-97 -24 -104 0 -3 11 -8 28 -11 39 -5 16 6 21 87 41 51 13 95 24 96 26 6 5 -9
64 -16 63 -4 0 -64 -15 -134 -32z"/>
<path d="M2992 3909 c-45 -83 -82 -154 -82 -158 0 -4 16 -15 35 -24 l35 -17
17 35 c11 24 29 39 56 50 22 9 41 14 42 13 2 -2 7 -41 12 -88 l8 -85 44 -24
44 -24 -7 74 c-3 41 -9 97 -12 125 l-6 51 98 35 98 35 -49 26 -50 25 -84 -34
c-132 -53 -126 -55 -81 29 l40 73 -35 17 c-20 9 -37 17 -39 17 -1 0 -39 -68
-84 -151z"/>
<path d="M1323 3979 c-89 -44 -122 -112 -88 -179 29 -57 69 -63 169 -25 75 28
106 22 106 -19 0 -47 -76 -85 -121 -60 -32 18 -39 17 -69 -5 -24 -19 -24 -20
-6 -40 50 -56 155 -41 231 33 39 37 45 48 45 84 0 29 -7 49 -25 70 -37 44 -66
47 -155 16 -84 -30 -110 -28 -110 10 0 46 85 87 117 55 11 -11 83 17 83 32 0
4 -13 17 -29 28 -38 27 -94 27 -148 0z"/>
<path d="M3427 3832 c-22 -24 -21 -31 3 -57 l19 -21 -71 -87 -71 -88 -24 23
-25 23 -19 -24 c-10 -13 -19 -26 -19 -30 0 -3 37 -35 81 -70 l82 -65 19 24
c18 23 18 23 -3 46 -13 14 -18 27 -13 36 18 29 127 158 134 158 4 0 13 -7 20
-15 18 -21 35 -19 53 9 15 23 14 25 -26 57 -23 18 -60 48 -83 66 -39 32 -42
32 -57 15z"/>
<path d="M991 3737 c-62 -56 -112 -106 -111 -112 1 -5 8 -18 16 -29 12 -18 15
-17 55 18 24 20 45 36 49 36 3 0 46 -47 95 -104 50 -58 95 -105 101 -105 17
-1 57 46 49 59 -3 6 -44 54 -91 107 -46 53 -84 99 -84 104 0 4 19 24 42 43
l42 36 -24 24 -25 24 -114 -101z"/>
<path d="M2111 3660 c-608 -86 -1084 -543 -1185 -1139 -21 -122 -21 -330 0
-452 73 -432 350 -806 743 -1004 89 -44 246 -98 361 -122 117 -24 389 -24 512
0 107 21 267 76 361 124 267 134 500 371 626 636 147 310 173 681 69 1007 -98
307 -304 573 -584 752 -116 74 -294 145 -449 179 -104 23 -354 33 -454 19z
m415 -35 c268 -47 520 -180 719 -380 193 -194 313 -418 372 -695 25 -120 25
-392 0 -510 -60 -279 -179 -501 -372 -695 -195 -196 -422 -318 -698 -376 -144
-31 -380 -31 -524 0 -276 58 -503 180 -698 376 -194 193 -311 413 -372 696
-25 117 -25 391 0 508 42 193 115 367 219 519 148 216 404 410 658 500 226 79
458 98 696 57z"/>
<path d="M2005 2960 c-33 -4 -112 -11 -176 -15 l-115 -7 -17 -57 c-24 -82 -22
-123 9 -161 15 -17 39 -37 54 -45 l27 -14 -24 -103 c-23 -101 -23 -108 -12
-313 6 -115 11 -219 12 -230 0 -11 0 -82 -1 -158 l-2 -138 -105 7 c-92 6 -105
5 -105 -9 0 -21 6 -22 515 -57 237 -16 446 -32 466 -35 26 -3 57 5 120 31 103
44 217 74 279 74 29 0 52 6 59 14 18 22 -2 28 -71 24 l-60 -3 -3 220 c-4 260
-26 448 -63 520 -8 16 -21 56 -29 89 -18 77 -132 338 -153 351 -21 13 -526 26
-605 15z m122 -46 c-3 -3 -12 -4 -19 -1 -8 3 -5 6 6 6 11 1 17 -2 13 -5z
m-144 -11 c-7 -2 -19 -2 -25 0 -7 3 -2 5 12 5 14 0 19 -2 13 -5z m510 0 c-7
-2 -21 -2 -30 0 -10 3 -4 5 12 5 17 0 24 -2 18 -5z m54 1 c-3 -3 -12 -4 -19
-1 -8 3 -5 6 6 6 11 1 17 -2 13 -5z m-709 -11 c-10 -2 -26 -2 -35 0 -10 3 -2
5 17 5 19 0 27 -2 18 -5z m120 -140 c-10 -2 -28 -2 -40 0 -13 2 -5 4 17 4 22
1 32 -1 23 -4z m365 -100 c-7 -2 -19 -2 -25 0 -7 3 -2 5 12 5 14 0 19 -2 13
-5z m174 1 c-3 -3 -12 -4 -19 -1 -8 3 -5 6 6 6 11 1 17 -2 13 -5z m-344 -951
c-7 -2 -21 -2 -30 0 -10 3 -4 5 12 5 17 0 24 -2 18 -5z m135 -10 c-10 -2 -28
-2 -40 0 -13 2 -5 4 17 4 22 1 32 -1 23 -4z m125 -10 c-7 -2 -19 -2 -25 0 -7
3 -2 5 12 5 14 0 19 -2 13 -5z m80 -10 c-7 -2 -19 -2 -25 0 -7 3 -2 5 12 5 14
0 19 -2 13 -5z"/>
<path d="M3543 3527 l-132 -111 63 -75 c88 -105 105 -116 176 -116 49 0 65 5
102 30 77 55 109 149 74 217 -22 41 -128 168 -140 167 -6 0 -70 -50 -143 -112z
m183 -30 c17 -23 34 -50 38 -60 16 -47 -68 -137 -127 -137 -29 0 -121 74 -114
93 3 10 158 146 167 146 3 0 19 -19 36 -42z"/>
<path d="M755 3494 c-85 -111 -81 -101 -54 -124 l24 -19 21 26 22 26 86 -67
c47 -37 86 -71 86 -75 0 -3 -7 -17 -16 -29 -9 -13 -14 -24 -13 -25 2 -1 14
-10 26 -20 21 -18 22 -18 87 64 l67 82 -23 24 -23 24 -23 -26 c-15 -18 -27
-24 -35 -18 -86 66 -157 127 -157 136 0 6 7 19 16 29 16 16 15 19 -7 37 -13
11 -26 20 -29 20 -3 0 -27 -29 -55 -65z"/>
<path d="M593 3267 l-21 -44 39 -94 c21 -52 39 -97 39 -100 0 -4 -28 8 -62 27
-35 18 -69 34 -75 34 -11 0 -43 -48 -43 -64 0 -5 304 -166 313 -166 8 0 37 55
37 68 0 5 -14 15 -30 22 -17 7 -37 25 -45 41 -27 50 -21 57 53 64 37 3 74 7
82 8 14 2 66 84 59 91 -2 2 -47 -2 -99 -10 -156 -22 -143 -28 -180 76 -18 50
-36 90 -39 90 -4 0 -16 -19 -28 -43z"/>
<path d="M3926 3277 c-17 -12 -16 -18 24 -96 23 -46 39 -85 37 -88 -3 -2 -63
12 -135 31 -143 40 -150 41 -186 24 l-26 -11 71 -139 c40 -76 77 -138 83 -138
7 0 21 6 31 14 19 14 18 17 -29 106 -39 74 -45 91 -30 87 212 -63 279 -77 306
-66 15 6 28 16 28 21 0 21 -132 268 -144 268 -7 0 -20 -6 -30 -13z"/>
<path d="M496 2145 c-11 -61 -31 -83 -83 -97 l-47 -11 46 -14 c55 -16 67 -30
84 -91 7 -26 13 -37 13 -24 2 65 55 122 113 122 19 0 20 2 8 10 -8 5 -25 10
-36 10 -35 0 -65 33 -79 85 l-12 49 -7 -39z"/>
<path d="M4058 2142 c-8 -54 -29 -79 -82 -94 l-41 -11 36 -9 c49 -13 78 -45
87 -99 l8 -44 8 40 c11 60 31 83 84 98 l47 14 -40 12 c-60 17 -69 25 -86 83
l-15 53 -6 -43z"/>
<path d="M572 1684 c-12 -8 -22 -23 -22 -33 0 -19 19 -41 35 -41 5 0 1 7 -10
16 -25 19 -9 49 26 49 18 0 24 -5 23 -22 0 -13 3 -23 8 -23 14 0 9 38 -8 54
-19 20 -24 20 -52 0z"/>
<path d="M3936 1684 c-11 -28 -7 -35 30 -50 39 -16 55 -8 53 26 -1 11 -3 10
-6 -2 -2 -10 -11 -18 -20 -18 -11 0 -14 6 -10 23 6 21 5 21 -8 3 -17 -22 -38
-12 -30 15 8 23 0 26 -9 3z"/>
<path d="M3890 1562 c0 -4 7 -18 16 -30 15 -21 14 -22 -15 -22 -39 0 -40 -15
-1 -35 37 -19 51 -19 26 0 -19 15 -19 15 2 15 25 0 26 3 12 31 -12 22 -7 24
21 9 10 -6 19 -7 19 -2 0 4 -16 16 -35 25 -40 19 -45 20 -45 9z"/>
<path d="M638 1534 c-32 -17 -37 -28 -9 -19 26 8 37 -23 14 -41 -10 -7 -15
-14 -11 -14 14 0 78 34 78 42 0 5 -9 4 -19 -1 -15 -8 -20 -7 -25 5 -4 9 -1 23
5 30 15 18 1 17 -33 -2z"/>
<path d="M3810 1413 c0 -10 53 -43 67 -43 4 0 -1 8 -12 16 -31 24 -55 36 -55
27z"/>
<path d="M708 1393 c-33 -5 -36 -18 -7 -26 17 -5 20 -11 16 -29 -5 -20 -3 -19
23 10 46 50 41 56 -32 45z m37 -23 c-3 -5 -10 -10 -16 -10 -5 0 -9 5 -9 10 0
6 7 10 16 10 8 0 12 -4 9 -10z"/>
<path d="M3753 1328 c-20 -26 -26 -41 -14 -34 6 4 25 -2 41 -14 17 -12 30 -17
30 -12 0 5 -12 17 -26 27 -15 10 -23 22 -20 31 7 17 2 18 -11 2z"/>
<path d="M800 1270 c-19 -16 -31 -30 -26 -30 5 0 18 7 28 17 20 18 23 7 8 -33
-14 -37 -7 -40 29 -13 37 27 42 47 6 23 l-25 -16 11 31 c16 47 8 53 -31 21z"/>
<path d="M892 1148 c-19 -19 -14 -52 9 -72 20 -16 23 -16 37 -2 13 12 13 19 4
28 -9 9 -12 8 -12 -6 0 -21 -19 -17 -34 7 -8 12 -7 21 6 33 20 20 45 12 58
-18 8 -22 9 -22 9 -2 1 26 -17 44 -44 44 -12 0 -26 -5 -33 -12z"/>
<path d="M3590 1115 c0 -2 8 -20 17 -39 16 -35 17 -35 28 -13 6 12 17 21 23
20 26 -6 10 14 -21 25 -36 13 -47 15 -47 7z m45 -25 c-3 -5 -10 -10 -16 -10
-5 0 -9 5 -9 10 0 6 7 10 16 10 8 0 12 -4 9 -10z"/>
<path d="M1005 1020 c-16 -16 -24 -30 -19 -30 6 0 23 14 39 30 16 17 24 30 19
30 -6 0 -23 -13 -39 -30z"/>
<path d="M1088 960 c-31 -39 -29 -55 2 -19 l20 24 -6 -42 c-4 -28 -3 -43 4
-43 17 0 20 12 13 65 l-6 50 -27 -35z"/>
<path d="M3404 948 c-10 -12 -13 -18 -7 -14 8 4 25 -6 43 -26 20 -21 28 -25
21 -12 -5 11 -17 26 -26 34 -12 10 -13 16 -4 26 19 23 -6 16 -27 -8z"/>
<path d="M1140 935 c-7 -9 -11 -18 -8 -20 3 -3 11 1 18 10 7 9 11 18 8 20 -3
3 -11 -1 -18 -10z"/>
<path d="M1212 868 c-22 -22 -14 -64 15 -77 21 -10 28 -9 34 1 11 17 6 31 -12
36 -12 3 -12 2 1 -7 12 -9 12 -11 -2 -16 -22 -9 -38 2 -38 24 0 40 59 51 61
12 0 -10 2 -12 6 -3 12 31 -40 55 -65 30z"/>
<path d="M3295 839 c4 -19 11 -43 16 -54 7 -19 8 -19 8 3 1 21 10 27 40 22 22
-3 0 20 -39 44 l-32 18 7 -33z m35 -8 c0 -6 -4 -13 -10 -16 -5 -3 -10 1 -10 9
0 9 5 16 10 16 6 0 10 -4 10 -9z"/>
<path d="M1453 738 c-6 -7 -16 -23 -22 -36 -11 -20 -10 -26 6 -38 10 -7 23
-13 28 -13 6 0 1 6 -9 14 -19 14 -19 16 -3 50 17 36 17 45 0 23z"/>
<path d="M3074 735 c-16 -12 -16 -14 -3 -15 9 0 22 -14 29 -30 7 -17 15 -28
18 -25 3 3 0 16 -8 29 -7 14 -10 32 -7 40 8 20 -3 20 -29 1z"/>
<path d="M1566 661 c-9 -16 -16 -36 -16 -43 1 -7 10 4 21 25 11 22 18 41 15
44 -2 3 -12 -9 -20 -26z"/>
<path d="M2970 686 c0 -11 32 -77 36 -74 5 6 -24 78 -31 78 -3 0 -5 -2 -5 -4z"/>
<path d="M1664 628 c3 -13 6 -34 6 -47 0 -20 2 -22 15 -11 9 7 25 27 36 44
l21 31 -31 -33 -31 -32 0 35 c0 19 -5 35 -11 35 -7 0 -9 -9 -5 -22z"/>
<path d="M2871 633 c-9 -16 -12 -16 -21 -3 -13 20 -13 0 2 -40 l11 -34 13 44
c14 48 12 62 -5 33z"/>
<path d="M1805 569 c-8 -45 -9 -44 24 -54 16 -5 21 -4 17 4 -4 6 -14 11 -22
11 -8 0 -14 7 -14 16 0 12 6 15 23 11 20 -5 20 -5 5 7 -28 20 -22 37 10 31 22
-4 24 -4 7 4 -35 17 -43 12 -50 -30z"/>
<path d="M2890 585 c7 -8 17 -15 22 -15 6 0 5 7 -2 15 -7 8 -17 15 -22 15 -6
0 -5 -7 2 -15z"/>
<path d="M2622 583 c-16 -3 -22 -9 -18 -20 3 -8 6 -22 6 -31 0 -32 15 -43 41
-32 22 10 23 10 2 6 -28 -5 -31 18 -5 34 15 9 14 10 -5 5 -16 -4 -23 -2 -23 8
0 8 10 19 23 25 23 11 18 12 -21 5z"/>
<path d="M1953 565 c-3 -9 2 -24 11 -34 9 -10 16 -21 16 -24 0 -11 -28 -8 -33
3 -3 6 -4 5 -3 -2 4 -17 35 -23 50 -8 8 9 5 16 -11 30 -23 18 -31 40 -15 40 4
0 13 -5 20 -12 8 -8 12 -8 12 -1 0 6 -7 14 -16 17 -22 8 -24 8 -31 -9z"/>
<path d="M2451 535 c0 -16 5 -39 10 -50 7 -16 9 -14 6 13 l-4 32 29 -27 c15
-14 30 -25 32 -22 2 2 0 22 -4 44 -7 39 -8 39 -9 7 l-1 -32 -30 32 -29 33 0
-30z"/>
<path d="M2288 524 c-15 -33 -1 -58 35 -62 34 -4 55 34 38 67 -17 30 -58 28
-73 -5z m62 -5 c13 -23 -1 -49 -26 -49 -21 0 -38 38 -23 56 16 20 36 17 49 -7z"/>
</g>
</svg>
